<?xml version="1.0" encoding="UTF-8"?>
<svg width="300px" height="150px" viewBox="0 0 300 150" version="1.1" xmlns="http://www.w3.org/2000/svg" xmlns:xlink="http://www.w3.org/1999/xlink">
    <!-- Generator: Sketch 60.1 (88133) - https://sketch.com -->
    <g id="Page-1" stroke="none" stroke-width="1" fill="none" fill-rule="evenodd">
        <g id="Group">
            <rect id="Rectangle" fill="#503C8F" x="0" y="0" width="300" height="150"></rect>
            <g id="gridly_logo_horizontal_800_white" transform="translate(50.000000, 51.000000)">
                <path d="M198.490464,16.0739135 C199.895268,16.152491 200.31837,16.8120774 199.764787,18.1095736 C197.911016,22.4557215 196.036399,26.7929665 194.167959,31.132921 C193.189344,33.406249 192.225399,35.6861573 191.222078,37.948647 C190.153515,40.3582275 188.530211,42.2077016 185.840661,42.7724531 C184.191879,43.1185037 182.517618,43.1053429 180.907825,42.4848517 C179.853932,42.0795777 179.602233,41.5485023 179.895239,40.4418371 C180.076292,39.7586387 180.262364,39.0769887 180.462333,38.3995966 C180.681219,37.657949 181.174194,37.3602835 181.934309,37.5410505 C182.309155,37.6296921 182.678983,37.7527839 183.058075,37.810459 C184.197669,37.9842585 185.079774,37.5344701 185.624478,36.5323168 C185.655362,36.4761901 185.677752,36.4142571 185.713654,36.3612269 C186.738207,34.8589648 186.730101,33.4677949 185.86807,31.761928 C183.636365,27.3457184 181.648252,22.8056429 179.565173,18.3139525 C178.866825,16.8085937 179.279889,16.1110733 180.91709,16.0681073 C181.913463,16.0417858 182.910994,16.0758489 183.907752,16.0595915 C185.095988,16.0398504 185.816727,16.6266655 186.229019,17.7155249 C187.366683,20.7208235 188.526351,23.7176062 189.679456,26.7170985 C189.767088,26.9458635 189.871319,27.1680481 190.061637,27.6120303 C190.625644,26.1120906 191.122479,24.8053044 191.608505,23.4946474 C192.289868,21.6567858 192.953473,19.8123439 193.644101,17.977966 C194.235902,16.4056421 194.750109,16.0684944 196.464519,16.0623011 C197.140091,16.0599786 197.816822,16.0363666 198.490464,16.0739135 Z M110.770753,12.747686 C112.091787,13.6971962 112.133093,14.6381906 110.951807,15.759952 C110.531794,16.1594198 110.104446,16.5511459 109.67401,16.9397755 C108.543295,17.9605086 108.061515,18.0402474 106.750519,17.2904711 C105.085909,16.3390254 103.36262,15.7971117 101.413497,16.1481944 C98.3189899,16.7059784 96.041732,19.406257 95.8448509,22.5512918 C95.4730931,28.4844726 100.898132,31.8873036 106.265265,29.5725579 C106.509243,29.4672718 106.831587,29.1874121 106.847029,28.9698725 C106.911884,28.0462967 106.874438,27.1153664 106.874438,26.0644409 C105.75569,26.0644409 104.792131,26.083795 103.830116,26.0594088 C102.703647,26.0307648 102.113004,25.4338856 102.059344,24.3264463 C101.923072,21.5026888 102.265104,21.1450258 105.102508,21.1450258 C106.968632,21.1450258 108.83437,21.1307038 110.700108,21.1504449 C112.304882,21.1674765 112.847656,21.7198414 112.851902,23.3084227 C112.859623,25.9537357 112.846112,28.5986616 112.857724,31.2435875 C112.861553,32.1946461 112.508325,32.9641635 111.698797,33.4394992 C106.378761,36.5659542 100.871109,37.294441 95.3337322,34.1888885 C90.7464029,31.6159596 88.6961374,27.3789687 89.0362398,22.2253694 C89.4087697,16.5879187 92.4233665,12.6404645 97.7951318,10.7820876 C102.405624,9.1865388 106.783332,9.8809625 110.770753,12.747686 Z M163.269635,8.05862286 C164.31156,7.95140136 164.891781,8.51150788 164.964356,9.56514294 C165.004119,10.1430552 164.979026,10.7252253 164.979026,11.3054601 C164.979412,18.6569065 164.980184,26.0083528 164.97864,33.3597992 C164.978254,35.1659202 164.520409,35.6160956 162.690573,35.6269339 C162.336573,35.6292564 161.982959,35.6300305 161.629345,35.6269339 C160.018009,35.6110635 159.763993,35.4194583 159.321204,33.8904876 C154.61729,36.9615899 150.243828,36.8412076 146.773316,33.5455982 C143.372292,30.3157926 142.645762,24.6868576 145.10446,20.4572212 C146.432056,18.173442 148.393146,16.6940176 150.951442,16.0650107 C153.441408,15.4526482 155.844516,15.7642486 158.253028,17.0892275 C158.253028,14.8577044 158.248009,12.8603653 158.254572,10.8630262 C158.259976,9.3371521 158.55221,8.94658716 160.052752,8.61640689 C161.115138,8.38260984 162.189491,8.16932809 163.269635,8.05862286 Z M138.499254,16.0740296 C139.758906,16.1324789 140.286239,16.6921983 140.291257,17.9602764 C140.302453,20.6028798 140.294732,23.2454833 140.294732,25.8880867 C140.294732,28.4985624 140.302067,31.108651 140.291644,33.7191267 C140.286625,35.0607502 139.778209,35.5860194 138.436329,35.6177601 C137.376259,35.6429203 136.31426,35.646017 135.254962,35.6057605 C134.203772,35.5655041 133.761754,35.1335215 133.611198,34.0880151 C133.570278,33.8027363 133.569892,33.5101029 133.569506,33.2209532 C133.567189,28.3224404 133.565645,23.4239277 133.568734,18.525415 C133.570278,16.5199472 134.018858,16.0674493 135.992687,16.0624172 L137.246549,16.052837 C137.664439,16.0511919 138.082136,16.0546756 138.499254,16.0740296 Z M130.390224,16.2543321 C131.101312,16.4904516 131.403968,17.0056567 131.215966,17.7635617 C130.97662,18.7293293 130.768158,19.7043869 130.489436,20.6585421 C130.153966,21.8062379 129.690331,22.0435187 128.553053,21.7454662 C128.336484,21.6885652 128.124161,21.6146327 127.906434,21.5619897 C125.275562,20.9287248 123.33802,22.3973109 123.304821,25.1018473 C123.270463,27.9050895 123.297486,30.7087187 123.292467,33.512735 C123.289379,35.109445 122.814934,35.6025865 121.250309,35.624263 C120.286364,35.6370367 119.32126,35.6455525 118.358087,35.614586 C117.204596,35.5774262 116.745592,35.1349924 116.608162,33.9900061 C116.577664,33.7353067 116.583069,33.4755752 116.583069,33.2177791 C116.581525,28.3196535 116.579981,23.4211407 116.583069,18.5230151 C116.584227,16.5152248 117.029719,16.0677589 119.004706,16.0619527 L119.583382,16.0619527 L119.583382,16.0619527 C121.709698,16.0638881 122.010424,16.3414253 122.199584,18.6426232 C123.31949,17.32616 124.466033,16.3433608 126.04031,15.9636341 C127.530429,15.6040356 128.970364,15.782093 130.390224,16.2543321 Z M176.369523,9.72539456 C176.39809,12.0134316 176.379946,14.3026299 176.380332,16.5914411 L176.380332,21.910324 L176.380332,21.910324 C176.380332,25.7788137 176.383807,29.6469162 176.378788,33.5150188 C176.376472,35.0954714 175.881567,35.5998382 174.32003,35.6246114 C173.452209,35.6381592 172.583616,35.6377722 171.715795,35.6242243 C170.161978,35.6002253 169.635032,35.0737948 169.631558,33.5239217 C169.623837,30.5581054 169.628855,27.5922892 169.628855,24.62686 C169.628855,20.0492376 169.627252,15.4716152 169.630013,10.8943798 C169.630785,9.35844157 169.926493,8.96284457 171.401557,8.62724516 C172.400246,8.39964141 173.406656,8.19332712 174.418856,8.0392688 C175.731011,7.83914781 176.352151,8.36983616 176.369523,9.72539456 Z M154.473297,21.4736964 C152.082157,21.4369237 150.291311,23.3425245 150.285893,25.9290012 C150.280502,28.5723788 151.954377,30.365339 154.430832,30.3688277 C156.898023,30.3723064 158.610116,28.5452831 158.591586,25.928227 C158.573828,23.3963288 156.830079,21.5100821 154.473297,21.4736964 Z M136.927409,5.00025549 C139.095031,4.97470813 141.009024,6.86869651 141.01599,9.04564124 C141.022536,11.236908 139.154482,13.0883174 136.943237,13.0813696 C134.71848,13.0743825 132.924932,11.2523912 132.937222,9.0115781 C132.949639,6.83966541 134.75361,5.02541577 136.927409,5.00025549 Z" id="Combined-Shape" fill="#FFFFFF"></path>
                <g id="logo-icon">
                    <path d="M27.0836074,7.5e-05 L11.0132215,12.508325 L28.8652349,23.408825 L37.0012248,17.076325 C41.3826846,13.665575 40.9447651,8.462075 36.0227013,5.457325 L27.0836074,7.5e-05 Z" id="Fill-1" fill="#61C2E8"></path>
                    <path d="M37.8091611,28.8785 L37.8091611,28.87825 L37.8086577,28.8785 L28.8738423,23.41425 L28.8647819,23.40875 L11.0130201,12.50875 L11.0044631,12.5035 L3.02652685,18.71425 C-1.36399329,22.1315 -0.925318792,27.33875 4.00253356,30.34675 L12.9481711,35.80975 L21.8381879,41.23775 L21.8374329,41.23825 L30.8432215,46.70775 C32.8085738,47.90775 35.1929698,48.56775 37.6261913,48.72 L37.8091611,48.73025 L37.8091611,28.879 L37.8091611,28.87875 L37.8091611,28.8785 Z" id="Fill-3" fill="#8B4DD4"></path>
                    <path d="M45.9550168,22.537425 L37.8195302,28.870425 L37.8155034,28.873425 L37.8089597,28.878175 L37.8089597,48.730175 C38.091594,48.745175 38.3749832,48.752925 38.6578691,48.753925 L38.7688591,48.753925 C42.0592953,48.744675 45.3356376,47.808675 47.6968792,45.971175 L55.6627349,39.769925 L55.6667617,39.765925 L63.8019966,33.434425 L63.8062752,33.431425 L45.9590436,22.534425 L45.9550168,22.537425 Z" id="Fill-5" fill="#DB4781"></path>
                    <path d="M70.7852265,15.6224 L61.8426091,10.1624 L52.9077936,4.70665 L44.9610654,10.8919 C40.5750755,14.30665 41.0122399,19.5139 45.9405956,22.52365 L45.9531795,22.53015 L45.9592198,22.53415 L63.805948,33.43165 L63.8175252,33.43865 L71.7612332,27.2549 C76.15125,23.83865 75.7123238,18.63015 70.7852265,15.6224" id="Fill-7" fill="#FBB321"></path>
                </g>
            </g>
        </g>
    </g>
</svg>