<svg xmlns="http://www.w3.org/2000/svg" viewBox="0 0 53 35">
  <defs/>
  <g fill="none" fill-rule="evenodd">
    <path fill="#61C2E8" d="M18.8557046.00005257L7.66744431 8.76678598 20.0960801 16.4066859l5.6643054-4.4382979c3.050388-2.39051316 2.7455069-6.03752192-.6812516-8.14347936L18.8557046.00005257z"/>
    <path fill="#8B4DD4" d="M26.3228736 20.2402503v-.0001752l-.0003504.0001752-6.2204506-3.8297622-.0063079-.0038548L7.66730413 8.76708385l-.00595745-.00367959-5.55426783 4.35296624c-3.05669587 2.3950688-2.75128911 6.0447058.67949937 8.1529411l6.22798498 3.8288861 6.1892616 3.8043555-.0005257.0003504 6.2698624 3.8334418c1.3682853.8410513 3.0283103 1.3036296 4.7223279 1.410338l.1273842.0071839v-13.913617z"/>
    <path fill="#DB4781" d="M31.9940476 15.7959424l-5.663955 4.4386483-.0028035.0021027-.0045557.0033291v13.9137923c.196771.0105131.3940676.0159449.5910138.0166458h.0772716c2.2908135-.0064831 4.5718147-.6625032 6.2157196-1.950363l5.5458573-4.3463079.0028035-.0028035 5.6637798-4.437597.0029787-.0021026-12.4253066-7.6374468-.0028035.0021026z"/>
    <path fill="#FBB321" d="M49.2809287 10.9493667l-6.2258824-3.82678347-6.2204506-3.82380476-5.5325406 4.33509387c-3.053542 2.39331666-2.7491865 6.04295366.6819524 8.15241556l.008761.0045557.0042052.0028035 12.4249562 7.6377972.0080601.0049061 5.530438-4.3340425c3.0563455-2.394368 2.7507635-6.0448811-.6794993-8.1529412"/>
  </g>
</svg>
