<svg width="171" height="36" viewBox="0 0 171 36" fill="none" xmlns="http://www.w3.org/2000/svg">
    <path
        fill-rule="evenodd"
        clip-rule="evenodd"
        d="M57.013 11.6268L41.5951 2.09573L35.8518 5.63041V5.63716C34.3236 6.52524 33.2952 8.17997 33.2952 10.0759C33.2952 12.0281 34.3847 13.7252 35.9883 14.5925L38.5323 16.1477L51.3352 24.1658L56.9376 20.6923C58.5788 19.8367 59.7 18.12 59.7 16.1402C59.7 14.1905 58.6133 12.495 57.013 11.6268Z"
        fill="#FBAF17"
    />
    <path
        fill-rule="evenodd"
        clip-rule="evenodd"
        d="M51.3351 24.1657L38.5321 16.1476L29.9912 21.3974V35.1017C29.9966 35.1017 30.0017 35.1017 30.007 35.1017C32.6206 35.1017 35.0522 34.3268 37.09 32.9978"
        fill="#E53182"
    />
    <mask id="mask0" mask-type="alpha" maskUnits="userSpaceOnUse" x="0" y="8" width="30" height="28">
        <path d="M0.1875 8.1666H29.9914V35.1015H0.1875V8.1666Z" fill="white" />
    </mask>
    <g mask="url(#mask0)">
        <path
            fill-rule="evenodd"
            clip-rule="evenodd"
            d="M29.9682 21.412L23.5254 17.4377L8.38632 8.1666C6.45659 9.37466 4.50755 10.557 2.59619 11.7945C1.11805 12.7515 0.1875 14.364 0.1875 16.1402C0.1875 18.0995 1.28533 19.8017 2.89869 20.6658C2.89869 20.6658 22.9122 32.9917 22.9131 32.9908C24.9492 34.3214 27.3791 35.0985 29.9914 35.1015V21.3975"
            fill="#9643DC"
        />
    </g>
    <path
        fill-rule="evenodd"
        clip-rule="evenodd"
        d="M8.38647 8.16655L23.5263 17.4381L21.3245 16.0799L27.5771 12.3239V12.32C29.0183 11.4118 29.9766 9.80646 29.9766 7.97625C29.9766 6.14586 29.0183 4.54067 27.5771 3.63251L21.6619 6.10352e-05L8.44067 8.13258L8.38647 8.16655Z"
        fill="#17C0FF"
    />
    <path
        d="M82.1295 28.0588C90.4086 28.0588 94.2354 22.6408 94.2354 17.3326V12.9396H82.6814V17.6621H89.0471C89.0471 20.4443 86.5818 23.2997 81.7247 23.2997C76.8677 23.2997 73.7032 19.6755 73.7032 13.7084C73.7032 7.74124 78.7442 5.50814 81.7247 5.50814C84.7052 5.50814 86.8762 6.78942 88.348 9.24218L93.4994 7.44837C92.0644 4.22685 88.3848 0.529412 81.32 0.529412C74.2551 0.529412 68.2942 6.93586 68.2942 14.5504C68.2942 22.1649 73.8504 28.0588 82.1295 28.0588ZM102.131 27L102.131 21.2743C102.139 16.7087 102.369 15.658 103.583 14.2528C104.963 12.6777 107.359 12.7876 108.811 13.4836L110.118 9.12465C108.883 8.39206 106.669 8.28217 105.362 8.75836C103.583 9.41769 102.712 10.2968 102.131 11.7254V9.05139H97.4118V26.9634L102.131 27ZM114.106 5.82353C115.694 5.82353 117 4.56536 117 2.91176C117 1.25817 115.694 0 114.106 0C112.482 0 111.177 1.25817 111.177 2.91176C111.177 4.56536 112.482 5.82353 114.106 5.82353ZM116.471 27.5294V9H111.177V27.5294H116.471ZM128.566 28.0588C131.229 28.0588 132.906 27.0625 133.964 25.5125L134.147 27.4315L138.706 27.4684L138.633 0.529412L133.855 0.566314L133.891 10.7884C132.068 8.90632 129.697 8.5373 127.873 8.75871C124.627 9.12774 120.651 11.5264 120.213 17.4308C119.703 24.3686 124.627 28.0588 128.566 28.0588ZM124.941 18.0549C124.941 14.9663 126.982 12.6687 129.459 12.7063C132.374 12.744 133.941 15.0416 133.941 18.0172C133.941 20.1642 133.03 23.1397 129.605 23.2904C126.909 23.4034 124.941 20.9175 124.941 18.0549ZM147.706 27.5294V0.529412H142.412V27.5294H147.706ZM159.044 35.4706L170.471 9.03697H165.145L160.597 20.3128L155.678 9.03697L150.353 9L157.934 26.4869L153.718 35.4706H159.044Z"
        fill="white"
    />
</svg>