<svg xmlns="http://www.w3.org/2000/svg" width="27" height="20" viewBox="0 0 27 20">
    <path fill="#7A8492" d="M22.997.04c1.767 0 3.204 1.442 3.198 3.21v13.522c0 1.767-1.436 3.204-3.203 3.204H3.203C1.436 19.976 0 18.539 0 16.772V3.244C0 1.477 1.436.04 3.203.04zm-.005 1.47H3.203c-.96 0-1.74.78-1.74 1.74v13.522c0 .96.78 1.74 1.74 1.74h19.794c.96 0 1.74-.78 1.74-1.74h-.005V3.25c0-.959-.78-1.74-1.74-1.74zM3.209 3.06c.27-.304.731-.331 1.035-.06l7.013 6.276c.044.033.082.065.12.103 0 .006.005.011.01.017l1.724 1.539 8.835-7.93c.303-.27.764-.243 1.035.055.271.303.244.764-.054 1.035L16.52 9.84l6.434 6.109c.293.276.303.742.027 1.035-.146.152-.336.227-.531.227-.179 0-.363-.065-.504-.2l-6.515-6.19-1.827 1.637c-.135.125-.314.19-.487.19-.174 0-.347-.06-.488-.185l-1.778-1.588-6.553 6.13c-.14.13-.32.196-.499.196-.195 0-.39-.082-.536-.234-.277-.298-.26-.758.032-1.035L9.751 9.89 3.268 4.095c-.303-.271-.33-.732-.06-1.035z"/>
</svg>
