<svg xmlns="http://www.w3.org/2000/svg" width="11" height="20" viewBox="0 0 11 20">
    <path fill="#7A8492" d="M10.082.004L7.569 0C4.746 0 2.922 1.932 2.922 4.922v2.27H.395c-.218 0-.395.182-.395.407v3.289c0 .225.177.407.395.407h2.527v8.297c0 .226.176.408.395.408h3.296c.218 0 .395-.183.395-.408v-8.297h2.954c.218 0 .395-.182.395-.407l.001-3.289c0-.108-.041-.211-.115-.288-.074-.077-.175-.12-.28-.12H7.008V5.268c0-.925.214-1.394 1.38-1.394l1.693-.001c.218 0 .395-.183.395-.408V.412c0-.225-.176-.407-.394-.408z"/>
</svg>
