<svg width="9" height="16" viewBox="0 0 9 16" fill="none" xmlns="http://www.w3.org/2000/svg">
<path d="M8.06535 0.00332907L6.05514 0C3.79674 0 2.33726 1.54552 2.33726 3.93762V5.75313H0.316086C0.141432 5.75313 0 5.89928 0 6.07954V8.71001C0 8.89028 0.141594 9.03626 0.316086 9.03626H2.33726V15.6738C2.33726 15.854 2.47869 16 2.65335 16H5.29041C5.46506 16 5.60649 15.8539 5.60649 15.6738V9.03626H7.96972C8.14437 9.03626 8.2858 8.89028 8.2858 8.71001L8.28677 6.07954C8.28677 5.99299 8.25339 5.91009 8.1942 5.84884C8.13502 5.78758 8.05438 5.75313 7.97052 5.75313H5.60649V4.2141C5.60649 3.47438 5.77728 3.09886 6.71086 3.09886L8.06503 3.09836C8.23952 3.09836 8.38095 2.95222 8.38095 2.77211V0.329578C8.38095 0.149642 8.23968 0.00366197 8.06535 0.00332907Z" fill="#080A31"/>
</svg>