<svg width="16" height="16" viewBox="0 0 16 16" fill="none" xmlns="http://www.w3.org/2000/svg">
<path d="M3.63262 4.96777V15.2727H0.202736V4.96777H3.63262ZM12.0514 4.72591C14.3078 4.72591 16 6.19881 16 9.36405V15.2727H12.5704V9.7599C12.5704 8.37457 12.074 7.42956 10.8329 7.42956C9.88535 7.42956 9.32109 8.06688 9.07315 8.68206C8.98252 8.90237 8.96016 9.20996 8.96016 9.51804V15.2727H5.53037V4.96777H8.96035V6.46222C8.96035 6.46222 10.2011 4.72591 12.0514 4.72591ZM1.94033 0C3.11377 0 3.83584 0.769366 3.8582 1.78059C3.8582 2.76948 3.11377 3.56079 1.91758 3.56079H1.89531C0.744238 3.56079 0 2.76948 0 1.78059C0 0.769366 0.767091 0 1.94033 0Z" fill="#080A31"/>
</svg>