<svg width="16" height="13" viewBox="0 0 16 13" fill="none" xmlns="http://www.w3.org/2000/svg">
<path d="M16 1.52989C15.405 1.78935 14.771 1.96133 14.11 2.04483C14.79 1.64123 15.309 1.00701 15.553 0.242556C14.919 0.61832 14.219 0.88374 13.473 1.03186C12.871 0.394651 12.013 0 11.077 0C9.261 0 7.799 1.46528 7.799 3.26159C7.799 3.52005 7.821 3.76857 7.875 4.00516C5.148 3.87295 2.735 2.57368 1.114 0.594462C0.830998 1.08256 0.665 1.64123 0.665 2.24265C0.665 3.37193 1.25 4.37297 2.122 4.95252C1.595 4.94258 1.078 4.79049 0.640002 4.55091C0.640002 4.56085 0.640002 4.57378 0.640002 4.5867C0.640002 6.17127 1.777 7.48743 3.268 7.79063C3.001 7.8632 2.71 7.89799 2.408 7.89799C2.198 7.89799 1.986 7.88606 1.787 7.84232C2.212 9.13363 3.418 10.083 4.852 10.1138C3.736 10.9816 2.319 11.5045 0.785001 11.5045C0.516001 11.5045 0.258 11.4926 0 11.4598C1.453 12.3912 3.175 12.9231 5.032 12.9231C11.068 12.9231 14.368 7.95266 14.368 3.64431C14.368 3.50017 14.363 3.36099 14.356 3.22282C15.007 2.76355 15.554 2.18996 16 1.52989Z" fill="#080A31"/>
</svg>