<svg xmlns="http://www.w3.org/2000/svg" width="26" height="20" viewBox="0 0 26 20">
    <path fill="#7A8492" d="M25.476 2.368c-.92.401-1.902.667-2.925.797 1.053-.625 1.856-1.607 2.233-2.79-.98.582-2.064.993-3.219 1.222C20.634.61 19.305 0 17.857 0c-2.81 0-5.073 2.268-5.073 5.048 0 .4.034.784.118 1.15C8.682 5.994 4.947 3.983 2.438.92c-.438.755-.695 1.62-.695 2.55 0 1.748.906 3.298 2.255 4.195-.815-.016-1.615-.251-2.293-.622v.055c0 2.453 1.76 4.49 4.067 4.959-.413.112-.864.166-1.331.166-.325 0-.653-.018-.961-.086.658 1.998 2.524 3.468 4.743 3.515-1.727 1.343-3.92 2.153-6.294 2.153-.416 0-.815-.019-1.215-.07C2.963 19.177 5.628 20 8.502 20c9.341 0 14.448-7.692 14.448-14.36 0-.223-.007-.438-.018-.652 1.007-.711 1.854-1.599 2.544-2.62z"/>
</svg>
