<svg xmlns="http://www.w3.org/2000/svg" width="29" height="20" viewBox="0 0 29 20">
    <path fill="#7A8492" d="M28.082 2.858l.036.23C27.773 1.878 26.84.944 25.656.604l-.025-.006C23.404 0 14.441 0 14.441 0S5.5-.012 3.25.598C2.042.944 1.11 1.878.77 3.064l-.006.024c-.833 4.296-.838 9.457.037 14.056l-.037-.233c.345 1.21 1.277 2.144 2.462 2.484l.025.006C5.476 20 14.442 20 14.442 20s8.939 0 11.19-.599c1.208-.346 2.142-1.28 2.481-2.466l.006-.024c.379-1.998.595-4.297.595-6.645v-.26-.27c0-2.35-.216-4.649-.632-6.878zm-16.5 11.437v-8.58l7.459 4.297-7.46 4.283z"/>
</svg>
